<?xml version="1.0" encoding="UTF-8"?><svg id="Camada_1" xmlns="http://www.w3.org/2000/svg" xmlns:xlink="http://www.w3.org/1999/xlink" viewBox="0 0 27.96 31.81"><defs><style>.cls-1{stroke:#141414;stroke-miterlimit:10;}.cls-1,.cls-2{fill:none;}.cls-3{fill:#141414;}.cls-3,.cls-2,.cls-4{stroke-width:0px;}.cls-4{fill:url(#Novo_padrão_3);}</style><pattern id="Novo_padrão_3" x="0" y="0" width="6" height="5" patternTransform="translate(10405.97 10410.17) scale(2.27)" patternUnits="userSpaceOnUse" viewBox="0 0 6 5"><rect class="cls-2" width="6" height="5"/><polygon class="cls-3" points="6.89 2.69 5.11 2.69 4.22 3.75 5.11 4.81 6.89 4.81 7.78 3.75 6.89 2.69"/><polygon class="cls-3" points="3.89 3.94 2.11 3.94 1.22 5 2.11 6.06 3.89 6.06 4.78 5 3.89 3.94"/><polygon class="cls-3" points=".89 2.69 -.89 2.69 -1.78 3.75 -.89 4.81 .89 4.81 1.78 3.75 .89 2.69"/><polygon class="cls-3" points="6.89 .19 5.11 .19 4.22 1.25 5.11 2.31 6.89 2.31 7.78 1.25 6.89 .19"/><polygon class="cls-3" points="3.89 1.44 2.11 1.44 1.22 2.5 2.11 3.56 3.89 3.56 4.78 2.5 3.89 1.44"/><polygon class="cls-3" points=".89 .19 -.89 .19 -1.78 1.25 -.89 2.31 .89 2.31 1.78 1.25 .89 .19"/><polygon class="cls-3" points="3.89 -1.06 2.11 -1.06 1.22 0 2.11 1.06 3.89 1.06 4.78 0 3.89 -1.06"/></pattern></defs><ellipse class="cls-4" cx="13.98" cy="15.9" rx="11.79" ry="13.48"/><ellipse class="cls-1" cx="13.98" cy="15.9" rx="13.48" ry="15.4"/></svg>